# AST/ASF file generated using VICON BodyLanguage
# -----------------------------------------------
:version 1.10
:name VICON
:units
  mass 1.0
  length 0.45
  angle deg
:documentation
   .ast/.asf automatically generated from VICON data using
   VICON BodyBuilder and BodyLanguage model FoxedUp or BRILLIANT.MOD
:root
   order TX TY TZ RX RY RZ
   axis XYZ
   position 0 0 0  
   orientation 0 0 0 
:bonedata
  begin
     id 1 
     name lhipjoint
     direction 0.710188 -0.616876 0.339259 
     length 2.5669 
     axis 0 0 0  XYZ
  end
  begin
     id 2 
     name lfemur
     direction 0.34202 -0.939693 0  
     length 7.12796  
     axis 0 0 20  XYZ
    dof rx ry rz
    limits (-160.0 20.0)
           (-70.0 70.0)
           (-60.0 70.0)
  end
  begin
     id 3 
     name ltibia
     direction 0.34202 -0.939693 0   
     length 7.58108   
     axis 0 0 20   XYZ
    dof rx
    limits (-10.0 170.0)
  end
  begin
     id 4 
     name lfoot
     direction 0.0669471 -0.183936 0.980656   
     length 2.17365   
     axis -90 7.62852e-016 20   XYZ
    dof rx rz
    limits (-45.0 90.0)
           (-70.0 20.0)
  end
  begin
     id 5 
     name ltoes
     direction 1.53508e-011 -4.21705e-011 1   
     length 1.09427   
     axis -90 7.62852e-016 20   XYZ
    dof rx
    limits (-90.0 20.0)
  end
  begin
     id 6 
     name rhipjoint
     direction -0.700191 -0.625589 0.34405   
     length 2.53115  
     axis 0 0 0  XYZ 
  end
  begin
     id 7 
     name rfemur
     direction -0.34202 -0.939693 0   
     length 7.33006   
     axis 0 0 -20   XYZ
    dof rx ry rz
    limits (-160.0 20.0)
           (-70.0 70.0)
           (-70.0 60.0)
  end
  begin
     id 8 
     name rtibia
     direction -0.34202 -0.939693 0   
     length 7.64926   
     axis 0 0 -20   XYZ
    dof rx
    limits (-10.0 170.0)
 end
 begin
     id 9 
     name rfoot
     direction -0.0688927 -0.189281 0.979503   
     length 2.20493  
     axis -90 -7.62852e-016 -20   XYZ
    dof rx rz
    limits (-45.0 90.0)
           (-20.0 70.0)
  end
  begin
     id 10 
     name rtoes
     direction -1.53567e-011 -4.21933e-011 1   
     length 1.10919   
     axis -90 -7.62852e-016 -20   XYZ
    dof rx
    limits (-90.0 20.0)
  end
  begin
     id 11 
     name lowerback
     direction -0.0167868 0.989873 -0.140959   
     length 2.14596   
     axis 0 0 0   XYZ
    dof rx ry rz
    limits (-20.0 45.0)
           (-30.0 30.0)
           (-30.0 30.0)
  end
  begin
     id 12 
     name upperback
     direction 0.0129109 0.998033 0.0613525   
     length 2.10457   
     axis 0 0 0   XYZ
    dof rx ry rz
    limits (-20.0 45.0)
           (-30.0 30.0)
           (-30.0 30.0)
  end
  begin
     id 13 
     name thorax
     direction 0.0177047 0.991119 0.131797   
     length 2.17652   
     axis 0 0 0   XYZ
    dof rx ry rz
    limits (-20.0 45.0)
           (-30.0 30.0)
           (-30.0 30.0)
  end
  begin
     id 14 
     name lowerneck
     direction -0.0336893 0.997548 0.0613464   
     length 1.8912   
     axis 0 0 0   XYZ
    dof rx ry rz
    limits (-20.0 45.0)
           (-30.0 30.0)
           (-30.0 30.0)
  end
  begin
     id 15 
     name upperneck
     direction 0.0435909 0.997179 -0.0611028   
     length 1.8829   
     axis 0 0 0   XYZ
    dof rx ry rz
    limits (-20.0 45.0)
           (-30.0 30.0)
           (-30.0 30.0)
  end
  begin
     id 16
     name head
     direction 0.0175076 0.999444 -0.0283782  
     length 1.93197  
     axis 0 0 0   XYZ
    dof rx ry rz
    limits (-20.0 45.0)
           (-30.0 30.0)
           (-30.0 30.0)
  end
  begin
     id 17 
     name lclavicle
     direction 0.919164 0.389875 0.0559876  
     length 3.60004  
     axis 0 0 0   XYZ
    dof ry rz
    limits (-20.0 10.0)
           (0.0 20.0)
  end
  begin
     id 18 
     name lhumerus
     direction 1 -4.48958e-011 6.89191e-027   
     length 5.43301   
     axis 180 -30 -90   XYZ
    dof rx ry rz
    limits (-60.0 90.0)
           (-90.0 90.0)
           (-90.0 90.0)
  end
  begin
     id 19
     name lradius
     direction 1 -4.4897e-011 3.24727e-027   
     length 3.15936   
     axis 180 -30 -90   XYZ
    dof rx
    limits (-10.0 170.0)
  end
  begin
     id 20
     name lwrist
     direction 1 -4.4897e-011 9.00228e-027   
     length 1.57968   
     axis -6.29373e-015 90 90   XYZ
    dof ry
    limits (-180.0 0.0)
 end
  begin
     id 21 
     name lhand
     direction 1 -4.48968e-011 1.80042e-026   
     length 0.712827   
     axis -1.14882e-014 90 90   XYZ
    dof rx rz
    limits (-90.0 90.0)
           (-45.0 45.0)
  end
  begin
     id 22 
     name lfingers
     direction 1 -4.49019e-011 3.60267e-026   
     length 0.574699   
     axis -2.29769e-014 90 90   XYZ
    dof rx
    limits (0.0 90.0)
  end
  begin
     id 23
     name lthumb
     direction 0.707107 -6.3498e-011 0.707107   
     length 0.825157   
     axis -90 45 5.37419e-014   XYZ
    dof rx rz
    limits (-45.0 45.0)
           (-45.0 45.0)
  end
  begin
     id 24 
     name rclavicle
     direction -0.890334 0.455305 -0.00132111   
     length 3.51494  
     axis 0 0 0   XYZ 
    dof ry rz
    limits (-10.0 20.0)
           (-20.0 0.0)
  end
  begin
     id 25 
     name rhumerus
     direction -1 -4.48967e-011 5.07175e-028  
     length 5.34194   
     axis 180 30 90   XYZ
    dof rx ry rz
    limits (-90.0 60.0)
           (-90.0 90.0)
           (-90.0 90.0)
  end
  begin
     id 26 
     name rradius
     direction -1 -4.48955e-011 3.30467e-027   
     length 3.19351   
     axis 180 30 90   XYZ
    dof rx
    limits (-10.0 170.0)
  end
  begin
     id 27 
     name rwrist
     direction -1 -4.48968e-011 9.00208e-027   
     length 1.59676   
     axis -6.29373e-015 -90 -90   XYZ
    dof ry
    limits (-180.0 0.0)
  end
  begin
     id 28
     name rhand
     direction -1 -4.49e-011 1.80099e-026   
     length 0.743862   
     axis -1.14882e-014 -90 -90   XYZ
    dof rx rz
    limits (-90.0 90.0)
           (-45.0 45.0)
  end
  begin
     id 29
     name rfingers
     direction -1 -4.49009e-011 3.6023e-026   
     length 0.599721   
     axis -2.29769e-014 -90 -90   XYZ
    dof rx
    limits (0.0 90.0)
  end
  begin
     id 30
     name rthumb
     direction -0.707107 -6.35025e-011 0.707107   
     length 0.861083   
     axis -90 -45 -5.37419e-014   XYZ
    dof rx rz
    limits (-45.0 45.0)
           (-45.0 45.0)
  end
:hierarchy
  begin
    root lhipjoint rhipjoint lowerback
    lhipjoint lfemur
    lfemur ltibia
    ltibia lfoot
    lfoot ltoes
    rhipjoint rfemur
    rfemur rtibia
    rtibia rfoot
    rfoot rtoes
    lowerback upperback
    upperback thorax
    thorax lowerneck lclavicle rclavicle
    lowerneck upperneck
    upperneck head
    lclavicle lhumerus
    lhumerus lradius
    lradius lwrist
    lwrist lhand lthumb
    lhand lfingers
    rclavicle rhumerus
    rhumerus rradius
    rradius rwrist
    rwrist rhand rthumb
    rhand rfingers
  end

#!OML:ASF H:\Martial Arts Walks\Project 1\Capture day 1\Session 1\male.ASF
:FULLY-SPECIFIED
:DEGREES
135
root -0.0494495 13.5972 -30.319 11.6792 -25.6304 -13.603
lowerback 6.19383 0.487632 4.19819
upperback -2.37408 1.26135 4.96365
thorax -5.99354 0.552018 2.6947
lowerneck -3.99045 -5.06321 -6.71995
upperneck 7.73616 -6.73481 4.91719
head 3.70907 -3.36146 2.52402
rclavicle 1.16087e-014 7.67806e-015
rhumerus -74.485 24.6466 -96.7788
rradius 109.435
rwrist -48.0552
rhand -4.31573 -15.3025
rfingers 7.12502
rthumb 21.4507 -44.1349
lclavicle 1.16087e-014 7.67806e-015
lhumerus -0.609237 -19.4392 71.9118
lradius 36.9863
lwrist -28.4045
lhand -19.3436 26.8872
lfingers 7.12502
lthumb 6.97344 56.7523
rfemur 16.5979 -1.89998 13.7548
rtibia 29.6045
rfoot -25.9121 -33.5387
rtoes -27.127
lfemur -72.3579 35.7556 -12.07
ltibia 83.335
lfoot -14.1185 -3.97916
ltoes -2.7015
136
root -0.0506574 13.5972 -30.3218 11.6979 -25.5732 -13.6053
lowerback 6.21516 0.461873 4.1972
upperback -2.38975 1.22971 4.96741
thorax -6.02196 0.536191 2.70302
lowerneck -3.9261 -5.19756 -6.81023
upperneck 7.67989 -6.91579 4.96886
head 3.69665 -3.45253 2.54964
rclavicle 7.5973e-015 -6.5102e-015
rhumerus -74.4855 24.6545 -96.793
rradius 109.45
rwrist -48.0564
rhand -4.30408 -15.2872
rfingers 7.12502
rthumb 21.4619 -44.1183
lclavicle 7.5973e-015 -6.5102e-015
lhumerus -0.603192 -19.4325 71.8891
lradius 36.9771
lwrist -28.4011
lhand -19.3416 26.8842
lfingers 7.12502
lthumb 6.97539 56.7493
rfemur 16.5827 -1.94325 13.782
rtibia 29.6187
rfoot -25.9421 -33.5282
rtoes -27.13
lfemur -72.4061 35.7007 -12.0755
ltibia 83.3214
lfoot -14.086 -3.97786
ltoes -2.7343
137
root -0.0517779 13.5974 -30.3254 11.7148 -25.5096 -13.6045
lowerback 6.24644 0.434401 4.19156
upperback -2.40736 1.19635 4.97203
thorax -6.05824 0.519648 2.71512
lowerneck -3.86784 -5.31901 -6.89158
upperneck 7.63023 -7.07984 5.01883
head 3.68631 -3.53497 2.57389
rclavicle 3.32359e-014 8.22969e-014
rhumerus -74.4887 24.6657 -96.8068
rradius 109.466
rwrist -48.0531
rhand -4.29418 -15.2801
rfingers 7.12502
rthumb 21.4714 -44.1102
lclavicle 3.32359e-014 8.22969e-014
lhumerus -0.597765 -19.4215 71.8706
lradius 36.969
lwrist -28.3947
lhand -19.3408 26.8853
lfingers 7.12502
lthumb 6.97621 56.7503
rfemur 16.5595 -1.99572 13.8085
rtibia 29.6481
rfoot -25.9752 -33.5186
rtoes -27.1274
lfemur -72.4555 35.6373 -12.0835
ltibia 83.3031
lfoot -14.0485 -3.97776
ltoes -2.75743
138
root -0.0528389 13.5976 -30.3289 11.7258 -25.4526 -13.5996
lowerback 6.2832 0.409211 4.18027
upperback -2.42229 1.16578 4.97613
thorax -6.09494 0.504719 2.72953
lowerneck -3.82222 -5.42941 -6.96243
upperneck 7.58966 -7.22889 5.06396
head 3.67998 -3.60973 2.5951
rclavicle -3.44208e-014 2.55935e-015
rhumerus -74.4898 24.6809 -96.8194
rradius 109.482
rwrist -48.0485
rhand -4.28743 -15.2744
rfingers 7.12502
rthumb 21.4779 -44.1037
lclavicle -3.44208e-014 2.55935e-015
lhumerus -0.591638 -19.4042 71.8551
lradius 36.9631
lwrist -28.3874
lhand -19.3411 26.8834
lfingers 7.12502
lthumb 6.97589 56.7485
rfemur 16.5321 -2.04784 13.828
rtibia 29.6888
rfoot -26.0036 -33.5124
rtoes -27.1293
lfemur -72.4959 35.5776 -12.0927
ltibia 83.2834
lfoot -14.0121 -3.97332
ltoes -2.79742
139
root -0.0538815 13.5979 -30.3318 11.7296 -25.4118 -13.5931
lowerback 6.31997 0.390103 4.1666
upperback -2.43234 1.14275 4.979
thorax -6.1266 0.493653 2.74307
lowerneck -3.78303 -5.52653 -7.03161
upperneck 7.55497 -7.35999 5.10859
head 3.67577 -3.6755 2.61671
rclavicle -1.48824e-014 -3.4191e-014
rhumerus -74.4932 24.6959 -96.8294
rradius 109.499
rwrist -48.0452
rhand -4.29028 -15.2711
rfingers 7.12502
rthumb 21.4752 -44.1007
lclavicle -1.48824e-014 -3.4191e-014
lhumerus -0.585877 -19.3862 71.8441
lradius 36.9609
lwrist -28.3779
lhand -19.3442 26.8828
lfingers 7.12502
lthumb 6.97288 56.7479
rfemur 16.5069 -2.09118 13.8378
rtibia 29.7337
rfoot -26.031 -33.5036
rtoes -27.1214
lfemur -72.5197 35.5322 -12.0982
ltibia 83.2658
lfoot -13.9831 -3.96645
ltoes -2.82532
140
root -0.0549253 13.5982 -30.3336 11.7253 -25.3915 -13.5843
lowerback 6.35211 0.377342 4.15092
upperback -2.43395 1.12698 4.97966
thorax -6.14674 0.486346 2.75445
lowerneck -3.75594 -5.61363 -7.09519
upperneck 7.52199 -7.47714 5.15177
head 3.6733 -3.7341 2.63731
rclavicle -2.62629e-014 7.05686e-015
rhumerus -74.492 24.7122 -96.8371
rradius 109.514
rwrist -48.0463
rhand -4.30154 -15.2714
rfingers 7.12502
rthumb 21.4644 -44.1022
lclavicle -2.62629e-014 7.05686e-015
lhumerus -0.576139 -19.367 71.8325
lradius 36.9625
lwrist -28.3647
lhand -19.3531 26.8751
lfingers 7.12502
lthumb 6.96432 56.7405
rfemur 16.4867 -2.12018 13.8371
rtibia 29.7773
rfoot -26.0549 -33.4932
rtoes -27.1049
lfemur -72.5234 35.5047 -12.0997
ltibia 83.2517
lfoot -13.9622 -3.95743
ltoes -2.84369
141
root -0.0560005 13.5986 -30.3344 11.7133 -25.3913 -13.5744
lowerback 6.37652 0.369575 4.13343
upperback -2.42814 1.11661 4.98018
thorax -6.1547 0.481897 2.76596
lowerneck -3.72635 -5.69063 -7.15185
upperneck 7.4824 -7.58069 5.18986
head 3.66649 -3.78593 2.65575
rclavicle 3.34704e-014 -4.01048e-014
rhumerus -74.4909 24.7325 -96.8421
rradius 109.53
rwrist -48.0504
rhand -4.32166 -15.2724
rfingers 7.12502
rthumb 21.445 -44.1054
lclavicle 3.34704e-014 -4.01048e-014
lhumerus -0.568677 -19.3412 71.8242
lradius 36.9674
lwrist -28.3527
lhand -19.3642 26.8607
lfingers 7.12502
lthumb 6.95362 56.7264
rfemur 16.4742 -2.13499 13.8268
rtibia 29.8152
rfoot -26.0593 -33.4913
rtoes -27.1004
lfemur -72.507 35.4954 -12.096
ltibia 83.2418
lfoot -13.9524 -3.94733
ltoes -2.8528
